<mxfile host="Electron" modified="2024-08-28T14:50:30.528Z" agent="Mozilla/5.0 (X11; Linux x86_64) AppleWebKit/537.36 (KHTML, like Gecko) draw.io/24.0.4 Chrome/120.0.6099.109 Electron/28.1.0 Safari/537.36" etag="v2aJIO2QykmqFVQ2rKxF" version="24.0.4" type="device">
  <diagram name="Page-1" id="92Gz0wR16_FhZz0YLkaD">
    <mxGraphModel dx="2261" dy="873" grid="1" gridSize="10" guides="1" tooltips="1" connect="1" arrows="1" fold="1" page="1" pageScale="1" pageWidth="827" pageHeight="1169" math="0" shadow="0">
      <root>
        <mxCell id="0" />
        <mxCell id="1" parent="0" />
        <mxCell id="3uyJrhJO52OVKU6tG0r4-4" value="" style="edgeStyle=orthogonalEdgeStyle;rounded=0;orthogonalLoop=1;jettySize=auto;html=1;" edge="1" parent="1" source="3uyJrhJO52OVKU6tG0r4-1" target="3uyJrhJO52OVKU6tG0r4-2">
          <mxGeometry relative="1" as="geometry" />
        </mxCell>
        <mxCell id="3uyJrhJO52OVKU6tG0r4-1" value="ip mangle (-150)" style="rounded=1;whiteSpace=wrap;html=1;" vertex="1" parent="1">
          <mxGeometry x="60" y="90" width="120" height="60" as="geometry" />
        </mxCell>
        <mxCell id="3uyJrhJO52OVKU6tG0r4-5" value="" style="edgeStyle=orthogonalEdgeStyle;rounded=0;orthogonalLoop=1;jettySize=auto;html=1;" edge="1" parent="1" source="3uyJrhJO52OVKU6tG0r4-2" target="3uyJrhJO52OVKU6tG0r4-3">
          <mxGeometry relative="1" as="geometry" />
        </mxCell>
        <mxCell id="3uyJrhJO52OVKU6tG0r4-2" value="ip filter (0)" style="rounded=1;whiteSpace=wrap;html=1;" vertex="1" parent="1">
          <mxGeometry x="230" y="90" width="120" height="60" as="geometry" />
        </mxCell>
        <mxCell id="3uyJrhJO52OVKU6tG0r4-3" value="ip nat (100)" style="rounded=1;whiteSpace=wrap;html=1;" vertex="1" parent="1">
          <mxGeometry x="400" y="90" width="120" height="60" as="geometry" />
        </mxCell>
        <mxCell id="3uyJrhJO52OVKU6tG0r4-6" value="Chains with same hook value are traversed in this order" style="text;html=1;align=center;verticalAlign=middle;whiteSpace=wrap;rounded=0;strokeColor=default;" vertex="1" parent="1">
          <mxGeometry x="70" y="40" width="440" height="30" as="geometry" />
        </mxCell>
        <mxCell id="3uyJrhJO52OVKU6tG0r4-9" value="" style="edgeStyle=orthogonalEdgeStyle;rounded=0;orthogonalLoop=1;jettySize=auto;html=1;" edge="1" parent="1" source="3uyJrhJO52OVKU6tG0r4-7" target="3uyJrhJO52OVKU6tG0r4-8">
          <mxGeometry relative="1" as="geometry" />
        </mxCell>
        <mxCell id="3uyJrhJO52OVKU6tG0r4-7" value="Container" style="rounded=1;whiteSpace=wrap;html=1;" vertex="1" parent="1">
          <mxGeometry x="60" y="710" width="120" height="60" as="geometry" />
        </mxCell>
        <mxCell id="3uyJrhJO52OVKU6tG0r4-8" value="Container" style="rounded=1;whiteSpace=wrap;html=1;" vertex="1" parent="1">
          <mxGeometry x="253" y="710" width="120" height="60" as="geometry" />
        </mxCell>
        <mxCell id="3uyJrhJO52OVKU6tG0r4-30" value="" style="group" vertex="1" connectable="0" parent="1">
          <mxGeometry x="60" y="347.75" width="120" height="234.5" as="geometry" />
        </mxCell>
        <mxCell id="3uyJrhJO52OVKU6tG0r4-10" value="&lt;b&gt;PREROUTING&lt;/b&gt;" style="rounded=1;whiteSpace=wrap;html=1;" vertex="1" parent="3uyJrhJO52OVKU6tG0r4-30">
          <mxGeometry width="120" height="60" as="geometry" />
        </mxCell>
        <mxCell id="3uyJrhJO52OVKU6tG0r4-13" value="&lt;b&gt;ip mangle&lt;/b&gt;" style="rounded=1;whiteSpace=wrap;html=1;" vertex="1" parent="3uyJrhJO52OVKU6tG0r4-30">
          <mxGeometry y="100" width="120" height="30" as="geometry" />
        </mxCell>
        <mxCell id="3uyJrhJO52OVKU6tG0r4-14" value="&lt;b&gt;ip filter&lt;/b&gt;" style="rounded=1;whiteSpace=wrap;html=1;" vertex="1" parent="3uyJrhJO52OVKU6tG0r4-30">
          <mxGeometry y="152" width="120" height="30" as="geometry" />
        </mxCell>
        <mxCell id="3uyJrhJO52OVKU6tG0r4-15" value="&lt;b&gt;ip nat&lt;/b&gt;" style="rounded=1;whiteSpace=wrap;html=1;fillColor=#f5f5f5;gradientColor=#b3b3b3;strokeColor=#666666;" vertex="1" parent="3uyJrhJO52OVKU6tG0r4-30">
          <mxGeometry y="204.5" width="120" height="30" as="geometry" />
        </mxCell>
        <mxCell id="3uyJrhJO52OVKU6tG0r4-31" value="" style="group" vertex="1" connectable="0" parent="1">
          <mxGeometry x="218" y="347.75" width="120" height="234.5" as="geometry" />
        </mxCell>
        <mxCell id="3uyJrhJO52OVKU6tG0r4-11" value="&lt;b&gt;INPUT&lt;/b&gt;" style="rounded=1;whiteSpace=wrap;html=1;" vertex="1" parent="3uyJrhJO52OVKU6tG0r4-31">
          <mxGeometry width="120" height="60" as="geometry" />
        </mxCell>
        <mxCell id="3uyJrhJO52OVKU6tG0r4-16" value="&lt;b&gt;ip mangle&lt;/b&gt;" style="rounded=1;whiteSpace=wrap;html=1;" vertex="1" parent="3uyJrhJO52OVKU6tG0r4-31">
          <mxGeometry y="100" width="120" height="30" as="geometry" />
        </mxCell>
        <mxCell id="3uyJrhJO52OVKU6tG0r4-17" value="&lt;b&gt;ip filter&lt;/b&gt;" style="rounded=1;whiteSpace=wrap;html=1;fillColor=#f5f5f5;gradientColor=#b3b3b3;strokeColor=#666666;" vertex="1" parent="3uyJrhJO52OVKU6tG0r4-31">
          <mxGeometry y="152" width="120" height="30" as="geometry" />
        </mxCell>
        <mxCell id="3uyJrhJO52OVKU6tG0r4-18" value="&lt;b&gt;ip nat&lt;/b&gt;" style="rounded=1;whiteSpace=wrap;html=1;" vertex="1" parent="3uyJrhJO52OVKU6tG0r4-31">
          <mxGeometry y="204.5" width="120" height="30" as="geometry" />
        </mxCell>
        <mxCell id="3uyJrhJO52OVKU6tG0r4-32" value="" style="group" vertex="1" connectable="0" parent="1">
          <mxGeometry x="375" y="347.75" width="120" height="234.5" as="geometry" />
        </mxCell>
        <mxCell id="3uyJrhJO52OVKU6tG0r4-12" value="&lt;b&gt;FORWARD&lt;/b&gt;" style="rounded=1;whiteSpace=wrap;html=1;" vertex="1" parent="3uyJrhJO52OVKU6tG0r4-32">
          <mxGeometry width="120" height="60" as="geometry" />
        </mxCell>
        <mxCell id="3uyJrhJO52OVKU6tG0r4-19" value="&lt;b&gt;ip mangle&lt;/b&gt;" style="rounded=1;whiteSpace=wrap;html=1;" vertex="1" parent="3uyJrhJO52OVKU6tG0r4-32">
          <mxGeometry y="100" width="120" height="30" as="geometry" />
        </mxCell>
        <mxCell id="3uyJrhJO52OVKU6tG0r4-20" value="&lt;b&gt;ip filter&lt;/b&gt;" style="rounded=1;whiteSpace=wrap;html=1;fillColor=#f5f5f5;gradientColor=#b3b3b3;strokeColor=#666666;" vertex="1" parent="3uyJrhJO52OVKU6tG0r4-32">
          <mxGeometry y="152" width="120" height="30" as="geometry" />
        </mxCell>
        <mxCell id="3uyJrhJO52OVKU6tG0r4-21" value="&lt;b&gt;ip nat&lt;/b&gt;" style="rounded=1;whiteSpace=wrap;html=1;" vertex="1" parent="3uyJrhJO52OVKU6tG0r4-32">
          <mxGeometry y="204.5" width="120" height="30" as="geometry" />
        </mxCell>
        <mxCell id="3uyJrhJO52OVKU6tG0r4-33" value="" style="group" vertex="1" connectable="0" parent="1">
          <mxGeometry x="533" y="347.75" width="120" height="234.5" as="geometry" />
        </mxCell>
        <mxCell id="3uyJrhJO52OVKU6tG0r4-22" value="&lt;b&gt;OUTPUT&lt;/b&gt;" style="rounded=1;whiteSpace=wrap;html=1;" vertex="1" parent="3uyJrhJO52OVKU6tG0r4-33">
          <mxGeometry width="120" height="60" as="geometry" />
        </mxCell>
        <mxCell id="3uyJrhJO52OVKU6tG0r4-23" value="&lt;b&gt;ip mangle&lt;/b&gt;" style="rounded=1;whiteSpace=wrap;html=1;" vertex="1" parent="3uyJrhJO52OVKU6tG0r4-33">
          <mxGeometry y="100" width="120" height="30" as="geometry" />
        </mxCell>
        <mxCell id="3uyJrhJO52OVKU6tG0r4-24" value="&lt;b&gt;ip filter&lt;/b&gt;" style="rounded=1;whiteSpace=wrap;html=1;" vertex="1" parent="3uyJrhJO52OVKU6tG0r4-33">
          <mxGeometry y="152" width="120" height="30" as="geometry" />
        </mxCell>
        <mxCell id="3uyJrhJO52OVKU6tG0r4-25" value="&lt;b&gt;ip nat&lt;/b&gt;" style="rounded=1;whiteSpace=wrap;html=1;fillColor=#f5f5f5;gradientColor=#b3b3b3;strokeColor=#666666;" vertex="1" parent="3uyJrhJO52OVKU6tG0r4-33">
          <mxGeometry y="204.5" width="120" height="30" as="geometry" />
        </mxCell>
        <mxCell id="3uyJrhJO52OVKU6tG0r4-34" value="" style="group" vertex="1" connectable="0" parent="1">
          <mxGeometry x="690" y="347.75" width="120" height="234.5" as="geometry" />
        </mxCell>
        <mxCell id="3uyJrhJO52OVKU6tG0r4-26" value="&lt;b&gt;POSTROUTING&lt;/b&gt;" style="rounded=1;whiteSpace=wrap;html=1;" vertex="1" parent="3uyJrhJO52OVKU6tG0r4-34">
          <mxGeometry width="120" height="60" as="geometry" />
        </mxCell>
        <mxCell id="3uyJrhJO52OVKU6tG0r4-27" value="&lt;b&gt;ip mangle&lt;/b&gt;" style="rounded=1;whiteSpace=wrap;html=1;fillColor=#f5f5f5;gradientColor=#b3b3b3;strokeColor=#666666;" vertex="1" parent="3uyJrhJO52OVKU6tG0r4-34">
          <mxGeometry y="100" width="120" height="30" as="geometry" />
        </mxCell>
        <mxCell id="3uyJrhJO52OVKU6tG0r4-28" value="&lt;b&gt;ip filter&lt;/b&gt;" style="rounded=1;whiteSpace=wrap;html=1;" vertex="1" parent="3uyJrhJO52OVKU6tG0r4-34">
          <mxGeometry y="152" width="120" height="30" as="geometry" />
        </mxCell>
        <mxCell id="3uyJrhJO52OVKU6tG0r4-29" value="&lt;b&gt;ip nat&lt;/b&gt;" style="rounded=1;whiteSpace=wrap;html=1;fillColor=#f5f5f5;gradientColor=#b3b3b3;strokeColor=#666666;" vertex="1" parent="3uyJrhJO52OVKU6tG0r4-34">
          <mxGeometry y="204.5" width="120" height="30" as="geometry" />
        </mxCell>
        <mxCell id="3uyJrhJO52OVKU6tG0r4-35" value="https://docs.docker.com/engine/network/drivers/bridge/#:~:text=User%2Ddefined%20bridges%20provide%20automatic,other%20by%20name%20or%20alias." style="text;html=1;align=center;verticalAlign=middle;whiteSpace=wrap;rounded=0;" vertex="1" parent="1">
          <mxGeometry x="70" y="920" width="630" height="30" as="geometry" />
        </mxCell>
        <mxCell id="3uyJrhJO52OVKU6tG0r4-36" value="&lt;strong style=&quot;box-sizing: border-box; border-width: 0px; border-style: solid; border-color: initial; --tw-border-spacing-x: 0; --tw-border-spacing-y: 0; --tw-translate-x: 0; --tw-translate-y: 0; --tw-rotate: 0; --tw-skew-x: 0; --tw-skew-y: 0; --tw-scale-x: 1; --tw-scale-y: 1; --tw-pan-x: ; --tw-pan-y: ; --tw-pinch-zoom: ; --tw-scroll-snap-strictness: proximity; --tw-gradient-from-position: ; --tw-gradient-via-position: ; --tw-gradient-to-position: ; --tw-ordinal: ; --tw-slashed-zero: ; --tw-numeric-figure: ; --tw-numeric-spacing: ; --tw-numeric-fraction: ; --tw-ring-inset: ; --tw-ring-offset-width: 0px; --tw-ring-offset-color: #fff; --tw-ring-color: rgb(59 130 246 / 0.5); --tw-ring-offset-shadow: 0 0 #0000; --tw-ring-shadow: 0 0 #0000; --tw-shadow: 0 0 #0000; --tw-shadow-colored: 0 0 #0000; --tw-blur: ; --tw-brightness: ; --tw-contrast: ; --tw-grayscale: ; --tw-hue-rotate: ; --tw-invert: ; --tw-saturate: ; --tw-sepia: ; --tw-drop-shadow: ; --tw-backdrop-blur: ; --tw-backdrop-brightness: ; --tw-backdrop-contrast: ; --tw-backdrop-grayscale: ; --tw-backdrop-hue-rotate: ; --tw-backdrop-invert: ; --tw-backdrop-opacity: ; --tw-backdrop-saturate: ; --tw-backdrop-sepia: ; --tw-contain-size: ; --tw-contain-layout: ; --tw-contain-paint: ; --tw-contain-style: ; font-weight: 600; color: rgb(0, 0, 0); font-family: &amp;quot;Roboto Flex&amp;quot;, system-ui, -apple-system, BlinkMacSystemFont, &amp;quot;Segoe UI&amp;quot;, Oxygen, Ubuntu, Cantarell, &amp;quot;Open Sans&amp;quot;, &amp;quot;Helvetica Neue&amp;quot;, sans-serif; font-size: 16px; font-style: normal; font-variant-ligatures: normal; font-variant-caps: normal; letter-spacing: normal; orphans: 2; text-align: left; text-indent: 0px; text-transform: none; widows: 2; word-spacing: 0px; -webkit-text-stroke-width: 0px; white-space: normal; background-color: rgb(249, 249, 250); text-decoration-thickness: initial; text-decoration-style: initial; text-decoration-color: initial;&quot;&gt;User-defined bridges provide automatic DNS resolution between containers&lt;/strong&gt;&lt;span style=&quot;color: rgb(0, 0, 0); font-family: &amp;quot;Roboto Flex&amp;quot;, system-ui, -apple-system, BlinkMacSystemFont, &amp;quot;Segoe UI&amp;quot;, Oxygen, Ubuntu, Cantarell, &amp;quot;Open Sans&amp;quot;, &amp;quot;Helvetica Neue&amp;quot;, sans-serif; font-size: 16px; font-style: normal; font-variant-ligatures: normal; font-variant-caps: normal; font-weight: 400; letter-spacing: normal; orphans: 2; text-align: left; text-indent: 0px; text-transform: none; widows: 2; word-spacing: 0px; -webkit-text-stroke-width: 0px; white-space: normal; background-color: rgb(249, 249, 250); text-decoration-thickness: initial; text-decoration-style: initial; text-decoration-color: initial; display: inline !important; float: none;&quot;&gt;.&lt;/span&gt;" style="text;html=1;align=center;verticalAlign=middle;whiteSpace=wrap;rounded=0;" vertex="1" parent="1">
          <mxGeometry x="-20" y="990" width="840" height="30" as="geometry" />
        </mxCell>
      </root>
    </mxGraphModel>
  </diagram>
</mxfile>
